<?xml version="1.0" encoding="iso-8859-1"?>
<!-- Generator: Adobe Illustrator 21.0.0, SVG Export Plug-In . SVG Version: 6.00 Build 0)  -->
<svg version="1.1" xmlns="http://www.w3.org/2000/svg" xmlns:xlink="http://www.w3.org/1999/xlink" x="0px" y="0px"
	 viewBox="0 0 56 32" style="enable-background:new 0 0 56 32;" xml:space="preserve">
<g id="&#x80CC;&#x666F;_xA0_&#x56FE;&#x50CF;_1_">
	<image style="overflow:visible;" width="56" height="32" id="&#x80CC;&#x666F;_xA0_&#x56FE;&#x50CF;" xlink:href="19D12F44.jpg" >
	</image>
</g>
<g id="&#x692D;&#x5706;_2_&#x62F7;&#x8D1D;_5_1_" style="enable-background:new    ;">
	<g id="&#x692D;&#x5706;_2_&#x62F7;&#x8D1D;_5">
		<g>
			<path style="fill-rule:evenodd;clip-rule:evenodd;fill:#00ABFF;" d="M6.445,15.815L18.177,3.881c0.836-0.851,0.836-2.23,0-3.08
				l-0.159-0.162c-0.836-0.851-2.192-0.851-3.028,0L1.63,14.229c-0.83,0.844-0.835,2.209-0.017,3.061
				c0.092,0.161,0.203,0.314,0.338,0.452L15.112,31.36c0.838,0.852,2.196,0.852,3.034,0l0.16-0.162c0.838-0.852,0.838-2.234,0-3.087
				L6.445,15.815z M54.373,14.282L41.082,0.732c-0.832-0.848-2.181-0.848-3.013,0l-0.159,0.162c-0.832,0.848-0.832,2.223,0,3.071
				l11.672,11.899l-11.8,12.259c-0.834,0.85-0.834,2.228,0,3.078l0.159,0.162c0.834,0.85,2.185,0.85,3.019,0l13.094-13.578
				c0.135-0.138,0.246-0.29,0.337-0.45C55.204,16.485,55.199,15.124,54.373,14.282z"/>
		</g>
	</g>
</g>
<g id="&#x692D;&#x5706;_1_&#x62F7;&#x8D1D;_1_" style="enable-background:new    ;">
	<g id="&#x692D;&#x5706;_1_&#x62F7;&#x8D1D;">
		<g>
			<circle style="fill-rule:evenodd;clip-rule:evenodd;fill:#FF5B55;" cx="19.469" cy="16.156" r="2.5"/>
		</g>
	</g>
</g>
<g id="&#x692D;&#x5706;_1_&#x62F7;&#x8D1D;_8_3_" style="enable-background:new    ;">
	<g id="&#x692D;&#x5706;_1_&#x62F7;&#x8D1D;_8">
		<g>
			<circle style="fill-rule:evenodd;clip-rule:evenodd;fill:#F7C515;" cx="28.156" cy="16.156" r="2.5"/>
		</g>
	</g>
</g>
<g id="&#x692D;&#x5706;_1_&#x62F7;&#x8D1D;_8_2_" style="enable-background:new    ;">
	<g id="&#x692D;&#x5706;_1_&#x62F7;&#x8D1D;_8_1_">
		<g>
			<circle style="fill-rule:evenodd;clip-rule:evenodd;fill:#73CF22;" cx="36.531" cy="16.156" r="2.5"/>
		</g>
	</g>
</g>
</svg>
